<svg width="96" height="19" viewBox="0 0 96 19" fill="none" xmlns="http://www.w3.org/2000/svg">
<path d="M6.8 1.2C8.448 1.2 9.84 1.76 10.976 2.88C12.112 4 12.68 5.36 12.68 6.96C12.68 8.56 12.112 9.92 10.976 11.04C9.84 12.16 8.448 12.72 6.8 12.72H4.28V18H0.44V1.2H6.8ZM6.8 9.12C7.392 9.12 7.88 8.912 8.264 8.496C8.648 8.08 8.84 7.568 8.84 6.96C8.84 6.352 8.648 5.84 8.264 5.424C7.88 5.008 7.392 4.8 6.8 4.8H4.28V9.12H6.8ZM23.4283 18L20.2603 12.48H18.4363V18H14.5963V1.2H21.3163C22.9163 1.2 24.2763 1.76 25.3963 2.88C26.5163 4 27.0763 5.36 27.0763 6.96C27.0763 7.984 26.7883 8.936 26.2123 9.816C25.6523 10.68 24.9083 11.352 23.9803 11.832L27.5563 18H23.4283ZM18.4363 4.8V9.12H21.3163C21.8443 9.12 22.2923 8.912 22.6603 8.496C23.0443 8.08 23.2363 7.568 23.2363 6.96C23.2363 6.352 23.0443 5.84 22.6603 5.424C22.2923 5.008 21.8443 4.8 21.3163 4.8H18.4363ZM43.3355 15.816C41.6395 17.496 39.5755 18.336 37.1435 18.336C34.7115 18.336 32.6475 17.496 30.9515 15.816C29.2555 14.136 28.4075 12.064 28.4075 9.6C28.4075 7.136 29.2555 5.064 30.9515 3.384C32.6475 1.704 34.7115 0.863999 37.1435 0.863999C39.5755 0.863999 41.6395 1.704 43.3355 3.384C45.0315 5.064 45.8795 7.136 45.8795 9.6C45.8795 12.064 45.0315 14.136 43.3355 15.816ZM33.6395 13.2C34.5835 14.128 35.7515 14.592 37.1435 14.592C38.5355 14.592 39.6955 14.128 40.6235 13.2C41.5675 12.272 42.0395 11.072 42.0395 9.6C42.0395 8.128 41.5675 6.928 40.6235 6C39.6955 5.072 38.5355 4.608 37.1435 4.608C35.7515 4.608 34.5835 5.072 33.6395 6C32.7115 6.928 32.2475 8.128 32.2475 9.6C32.2475 11.072 32.7115 12.272 33.6395 13.2ZM59.9216 18.336C58.2096 18.336 56.7776 17.968 55.6256 17.232C54.4896 16.48 53.6816 15.464 53.2016 14.184L56.5136 12.264C57.1856 13.816 58.3616 14.592 60.0416 14.592C61.5616 14.592 62.3216 14.136 62.3216 13.224C62.3216 12.728 62.0736 12.344 61.5776 12.072C61.0976 11.784 60.1856 11.456 58.8416 11.088C58.1376 10.896 57.5216 10.68 56.9936 10.44C56.4656 10.2 55.9456 9.888 55.4336 9.504C54.9376 9.104 54.5536 8.608 54.2816 8.016C54.0256 7.424 53.8976 6.744 53.8976 5.976C53.8976 4.424 54.4496 3.184 55.5536 2.256C56.6736 1.328 58.0016 0.863999 59.5376 0.863999C60.9136 0.863999 62.1296 1.192 63.1856 1.848C64.2416 2.488 65.0736 3.424 65.6816 4.656L62.4416 6.552C62.1376 5.912 61.7616 5.432 61.3136 5.112C60.8656 4.776 60.2736 4.608 59.5376 4.608C58.9616 4.608 58.5136 4.736 58.1936 4.992C57.8896 5.232 57.7376 5.528 57.7376 5.88C57.7376 6.296 57.9296 6.656 58.3136 6.96C58.7136 7.264 59.5296 7.6 60.7616 7.968C61.4336 8.176 61.9536 8.344 62.3216 8.472C62.6896 8.6 63.1536 8.816 63.7136 9.12C64.2896 9.408 64.7216 9.72 65.0096 10.056C65.3136 10.376 65.5776 10.808 65.8016 11.352C66.0416 11.88 66.1616 12.488 66.1616 13.176C66.1616 14.776 65.5856 16.04 64.4336 16.968C63.2816 17.88 61.7776 18.336 59.9216 18.336ZM74.3234 1.2C75.9714 1.2 77.3634 1.76 78.4994 2.88C79.6354 4 80.2034 5.36 80.2034 6.96C80.2034 8.56 79.6354 9.92 78.4994 11.04C77.3634 12.16 75.9714 12.72 74.3234 12.72H71.8034V18H67.9634V1.2H74.3234ZM74.3234 9.12C74.9154 9.12 75.4034 8.912 75.7874 8.496C76.1714 8.08 76.3634 7.568 76.3634 6.96C76.3634 6.352 76.1714 5.84 75.7874 5.424C75.4034 5.008 74.9154 4.8 74.3234 4.8H71.8034V9.12H74.3234ZM91.1122 18L90.2722 15.36H84.0322L83.1922 18H78.9922L84.7042 1.2H89.6002L95.3122 18H91.1122ZM85.1842 11.76H89.1202L87.1522 5.592L85.1842 11.76Z" fill="#333333"/>
</svg>
